HIERARCHY
ROOT Hips
{
	OFFSET 0.000000 0.000000 0.000000
	CHANNELS 6 Xposition Yposition Zposition Zrotation Yrotation Xrotation 
	JOINT LHipJoint
	{
		OFFSET 0.000000 0.000000 0.000000
		CHANNELS 3 Zrotation Yrotation Xrotation
		JOINT LeftUpLeg
		{
			OFFSET 1.363060 -1.794630 0.839290
			CHANNELS 3 Zrotation Yrotation Xrotation
			JOINT LeftLeg
			{
				OFFSET 2.448110 -6.726130 0.000000
				CHANNELS 3 Zrotation Yrotation Xrotation
				JOINT LeftFoot
				{
					OFFSET 2.562200 -7.039590 0.000000
					CHANNELS 3 Zrotation Yrotation Xrotation
					JOINT LeftToeBase
					{
						OFFSET 0.157640 -0.433110 2.322550
						CHANNELS 3 Zrotation Yrotation Xrotation
						End Site
						{
							OFFSET 0.000000 0.000000 0.000000
						}
					}
				}
			}
		}
	}
	JOINT RHipJoint
	{
		OFFSET 0.000000 0.000000 0.000000
		CHANNELS 3 Zrotation Yrotation Xrotation
		JOINT RightUpLeg
		{
			OFFSET -1.305520 -1.794630 0.839290
			CHANNELS 3 Zrotation Yrotation Xrotation
			JOINT RightLeg
			{
				OFFSET -2.542530 -6.985550 0.000000
				CHANNELS 3 Zrotation Yrotation Xrotation
				JOINT RightFoot
				{
					OFFSET -2.568260 -7.056230 0.000000
					CHANNELS 3 Zrotation Yrotation Xrotation
					JOINT RightToeBase
					{
						OFFSET -0.164730 -0.452590 2.363150
						CHANNELS 3 Zrotation Yrotation Xrotation
						End Site
						{
							OFFSET 0.000000 0.000000 0.000000
						}
					}
				}
			}
		}
	}
}
MOTION
Frames: 11
Frame Time: 0.008333
25.759886 15.905249 4.285175 -112.473614 -88.872947 136.401156 -12.168318 3.829919 0.118141 -2.153525 10.242150 5.629698 -1.747339 -0.961142 2.810692 0.569220 3.804833 -4.707449 0.105500 -0.000000 -71.125400 7.277534 -0.484490 6.490788 4.784201 11.697124 -65.793977 2.033440 -2.385170 35.715431 -0.891736 -1.009970 -8.813940 -0.311500 0.000001 -26.211200
25.525065 15.909997 4.253654 -108.463838 -88.703433 132.506436 -12.303157 3.933145 0.243186 -1.726871 9.731652 5.557746 -1.545616 -0.765561 3.927455 0.633411 4.753242 -2.861426 0.323600 -0.000000 -74.466499 7.123435 -0.576361 6.530966 4.917318 12.484505 -65.637617 1.819334 -2.473069 37.302868 -1.132209 -1.924644 -9.380814 -0.319300 -0.000001 -24.154600
25.288077 15.920757 4.221713 -105.995131 -88.487984 130.139009 -12.442001 4.025602 0.353396 -1.291495 9.249525 5.343645 -1.319999 -0.553118 5.296389 0.713222 5.753374 -0.793098 0.618600 -0.000000 -77.558300 6.967977 -0.676732 6.567873 5.135504 13.258656 -65.361690 1.636198 -2.538372 38.680016 -1.368095 -2.820427 -9.942144 -0.310800 0.000000 -22.228900
25.049333 15.937535 4.188099 -104.932031 -88.263238 129.164970 -12.571216 4.106876 0.450442 -0.895546 8.798111 4.957751 -1.074525 -0.329623 6.953997 0.811150 6.782953 1.487345 0.997001 -0.000000 -80.143400 6.828781 -0.778770 6.599089 5.406836 13.967823 -64.974675 1.486448 -2.585896 39.837671 -1.583907 -3.632557 -10.489534 -0.284300 0.000001 -20.623000
24.810102 15.960498 4.153223 -104.720834 -88.027419 129.019634 -12.695566 4.169672 0.528269 -0.525432 8.423228 4.376136 -0.812568 -0.102016 8.935857 0.925382 7.776609 3.942594 1.448900 0.000000 -81.958900 6.705223 -0.885206 6.620569 5.745293 14.598220 -64.451247 1.376575 -2.616888 40.751318 -1.770207 -4.320451 -11.024606 -0.240200 -0.000000 -19.326700
24.570853 15.989508 4.116839 -105.165160 -87.788572 129.508822 -12.810362 4.207193 0.589275 -0.198449 8.124185 3.583384 -0.539650 0.119410 11.258126 1.057192 8.702023 6.504208 1.955101 -0.000000 -82.731200 6.603556 -0.993949 6.630541 6.141335 15.131772 -63.785641 1.308323 -2.633371 41.413561 -1.918625 -4.848616 -11.545042 -0.181200 -0.000000 -18.377600
24.332655 16.024350 4.078199 -106.294507 -87.566948 130.665960 -12.901338 4.214295 0.641562 0.036192 7.859030 2.575666 -0.265309 0.323350 13.917053 1.209033 9.561351 9.072123 2.494300 -0.000000 -82.202200 6.536559 -1.096967 6.627412 6.561285 15.543227 -62.991149 1.278963 -2.637946 41.837425 -2.022079 -5.186425 -12.050951 -0.110300 0.000000 -17.775000
24.096185 16.064715 4.038215 -107.823076 -87.345109 132.207440 -12.973011 4.182541 0.684984 0.193917 7.629802 1.352672 -0.001022 0.501715 16.905508 1.375822 10.321488 11.514070 3.027700 -0.000000 -80.225500 6.496512 -1.198023 6.612838 7.016818 15.850918 -62.055853 1.288961 -2.628997 42.013916 -2.082542 -5.341856 -12.537897 -0.033400 0.000000 -17.459700
23.861954 16.110101 3.996490 -109.849299 -87.134815 134.236137 -13.013349 4.112600 0.724600 0.234775 7.397045 -0.077015 0.237451 0.651135 20.192647 1.551920 10.996511 13.690158 3.527700 0.000000 -76.785800 6.490870 -1.289894 6.588339 7.474451 16.048258 -61.001345 1.332253 -2.607214 41.967203 -2.100830 -5.316941 -13.006360 0.045000 0.000000 -17.384500
23.630492 16.159979 3.953816 -112.246296 -86.922784 136.632599 -13.024647 4.007266 0.757735 0.166647 7.161914 -1.704403 0.437581 0.775881 23.735323 1.726224 11.581152 15.473356 3.963200 0.000000 -72.088500 6.512907 -1.373305 6.558160 7.930634 16.159275 -59.834389 1.404532 -2.570359 41.705984 -2.084768 -5.143766 -13.453155 0.119900 0.000000 -17.475901
23.402708 16.213780 3.910319 -115.120110 -86.707066 139.494915 -13.004000 3.876474 0.780135 -0.023292 6.920088 -3.495837 0.592651 0.886516 27.459922 1.889474 12.100197 16.782985 4.322900 -0.000000 -66.552400 6.562368 -1.443764 6.521959 8.365725 16.194467 -58.562138 1.498800 -2.518025 41.258818 -2.041393 -4.850584 -13.884183 0.188999 0.000000 -17.652600
